<?xml version="1.0" encoding="UTF-8"?>
<svg id="Layer_1" data-name="Layer 1" xmlns="http://www.w3.org/2000/svg" viewBox="0 0 290.3 256">
  <defs>
    <style>
      .cls-1 {
        fill: #009245;
      }
    </style>
  </defs>
  <path class="cls-1" d="M237.59,105.07c-11.19,0-22.04-3.56-31.17-10.33h0c-11.26-8.36-18.6-20.61-20.65-34.51-2.06-13.9,1.41-27.75,9.77-39.01,17.27-23.27,50.25-28.15,73.52-10.88,11.26,8.36,18.6,20.61,20.65,34.51,2.06,13.9-1.41,27.75-9.77,39.01-8.34,11.24-20.59,18.57-34.49,20.63-2.63.39-5.26.58-7.87.58ZM237.79,21.01c-9.65,0-19.19,4.4-25.37,12.73-5.01,6.75-7.09,15.07-5.86,23.41,1.24,8.34,5.63,15.7,12.39,20.71h0c6.74,5.01,15.06,7.08,23.42,5.84,8.35-1.24,15.7-5.63,20.7-12.37,5.01-6.75,7.09-15.07,5.86-23.41-1.24-8.34-5.63-15.7-12.39-20.71-5.64-4.18-12.22-6.2-18.76-6.2Z"/>
  <path class="cls-1" d="M73.99,256c-10.05,0-19.8-3.2-28.01-9.29-20.89-15.51-25.28-45.12-9.77-66.01,15.5-20.89,45.12-25.28,66.01-9.77h0c10.11,7.5,16.7,18.51,18.55,30.98,1.85,12.48-1.27,24.92-8.77,35.03-7.5,10.11-18.51,16.7-30.98,18.55-2.35.35-4.69.52-7.02.52ZM74.13,182.65c-8.01,0-15.92,3.65-21.05,10.57-8.6,11.59-6.17,28.01,5.42,36.61,5.6,4.16,12.51,5.89,19.43,4.86,6.92-1.02,13.03-4.68,17.19-10.28,4.16-5.6,5.89-12.5,4.86-19.43-1.03-6.92-4.68-13.03-10.28-17.19h0c-4.68-3.47-10.14-5.14-15.56-5.14Z"/>
  <path class="cls-1" d="M42.36,121.91c-8.79,0-17.64-2.71-25.22-8.34-9.09-6.75-15.01-16.64-16.67-27.85s1.14-22.4,7.89-31.49c13.94-18.78,40.56-22.72,59.34-8.78h0c18.78,13.94,22.72,40.56,8.78,59.34-8.31,11.2-21.13,17.12-34.11,17.12ZM42.47,58.12c-1.06,0-2.12.08-3.19.24-5.66.84-10.65,3.82-14.05,8.4s-4.81,10.22-3.97,15.88c.84,5.66,3.82,10.65,8.4,14.05,9.47,7.03,22.9,5.04,29.93-4.43,7.03-9.47,5.04-22.9-4.43-29.93h0c-3.72-2.76-8.13-4.21-12.69-4.21Z"/>
  <path class="cls-1" d="M64.14,184.06c-4.74,0-9.04-3.23-10.21-8.04l-15.18-62.83c-1.36-5.64,2.11-11.32,7.75-12.68,5.64-1.36,11.32,2.11,12.68,7.75l15.18,62.83c1.36,5.64-2.11,11.32-7.75,12.68-.83.2-1.66.3-2.48.3Z"/>
  <path class="cls-1" d="M105.5,200.36c-2.75,0-5.5-1.07-7.56-3.21-4.03-4.17-3.92-10.83.26-14.86l107.19-103.56c4.17-4.03,10.83-3.92,14.86.26,4.03,4.17,3.92,10.83-.26,14.86l-107.19,103.56c-2.04,1.97-4.67,2.95-7.3,2.95Z"/>
</svg>